<?xml version="1.0" encoding="iso-8859-1"?>
<!-- Uploaded to: SVG Repo, www.svgrepo.com, Generator: SVG Repo Mixer Tools -->
<svg fill="#FFD100" height="800px" width="800px" version="1.1" id="Layer_1" xmlns="http://www.w3.org/2000/svg" xmlns:xlink="http://www.w3.org/1999/xlink" 
	 viewBox="0 0 512 512" xml:space="preserve">
<g>
	<g>
		<path d="M256,0C163.239,0,87.771,75.179,87.771,167.589v283.179v50.783c0,5.77,4.679,10.449,10.449,10.449h43.751
			c5.77,0,10.449-4.679,10.449-10.449v-40.335H359.58v40.335c0,5.77,4.679,10.449,10.449,10.449h43.751
			c5.77,0,10.449-4.679,10.449-10.449v-50.784V167.589C424.229,75.179,348.761,0,256,0z M256,20.898
			c77.71,0,141.552,60.214,146.952,136.242H109.048C114.448,81.112,178.29,20.898,256,20.898z M131.522,491.102h-22.853v-29.886
			h22.853V491.102z M403.331,491.102h-22.853v-29.886h22.853V491.102z M403.331,440.318H108.669v-262.28h294.661V440.318z"/>
	</g>
</g>
<g>
	<g>
		<path d="M377.93,198.261H134.045c-5.77,0-10.449,4.679-10.449,10.449v44.829c0,5.77,4.679,10.449,10.449,10.449H377.93
			c5.77,0,10.449-4.679,10.449-10.449V208.71C388.379,202.94,383.7,198.261,377.93,198.261z M367.481,243.089H144.494v-23.931
			h222.987V243.089z"/>
	</g>
</g>
<g>
	<g>
		<path d="M338.033,273.24h-0.155c-5.77,0-10.449,4.679-10.449,10.449c0,5.77,4.679,10.449,10.449,10.449h0.155
			c5.77,0,10.449-4.679,10.449-10.449C348.482,277.919,343.803,273.24,338.033,273.24z"/>
	</g>
</g>
<g>
	<g>
		<path d="M299.591,273.241H178.665c-5.77,0-10.449,4.679-10.449,10.449c0,5.77,4.679,10.449,10.449,10.449h120.926
			c5.77,0,10.449-4.679,10.449-10.449C310.04,277.92,305.361,273.241,299.591,273.241z"/>
	</g>
</g>
<g>
	<g>
		<path d="M351.067,85.597C327.149,58.093,292.498,42.318,256,42.318c-5.77,0-10.449,4.679-10.449,10.449
			c0,5.77,4.679,10.449,10.449,10.449c30.447,0,59.35,13.156,79.298,36.095c2.067,2.375,4.97,3.592,7.889,3.592
			c2.431,0,4.874-0.844,6.853-2.564C354.394,96.552,354.854,89.952,351.067,85.597z"/>
	</g>
</g>
<g>
	<g>
		<path d="M368.603,112.113l-0.109-0.109c-4.081-4.079-10.696-4.079-14.778,0c-4.08,4.08-4.08,10.697,0,14.778l0.109,0.109
			c2.041,2.04,4.715,3.061,7.388,3.061c2.674,0,5.348-1.021,7.388-3.061C372.684,122.81,372.684,116.194,368.603,112.113z"/>
	</g>
</g>
<g>
	<g>
		<path d="M333.31,304.481H178.665c-5.77,0-10.449,4.679-10.449,10.449v106.58c0,5.77,4.679,10.449,10.449,10.449H333.31
			c5.77,0,10.449-4.679,10.449-10.449V314.93C343.759,309.16,339.081,304.481,333.31,304.481z M307.87,325.379l-51.882,51.268
			l-51.882-51.268H307.87z M189.114,339.945l28.857,28.514l-28.857,28.219V339.945z M204.295,411.061l28.542-27.911l15.807,15.619
			c2.035,2.012,4.69,3.017,7.344,3.017c2.643,0,5.282-1.004,7.311-2.993c0.01-0.01,0.022-0.013,0.033-0.024l15.807-15.619
			l28.542,27.911H204.295z M322.861,396.678l-28.857-28.219l28.857-28.514V396.678z"/>
	</g>
</g>
</svg>