<?xml version="1.0" encoding="UTF-8"?>
<svg viewBox="0 0 58.282 58.282" xmlns="http://www.w3.org/2000/svg">
 <g fill="#FFD100">
  <path class="fil0" d="m24.186 22.5c-5.4466 3.1445 2.8637 18.724 8.8237 15.283 1.0584 1.8332 4.4675 7.7381 5.5259 9.5712-2.5146 1.4519-4.6431 2.3672-7.5585 0.7006-8.0946-4.6273-17.005-20.054-16.751-29.256 0.087999-3.196 1.971-4.4483 4.434-5.8703 1.0584 1.8332 4.4676 7.7381 5.5259 9.5713h9.9e-5z"/>
  <path class="fil0" d="m26.47 22.24c-0.58849 0.33978-1.3458 0.13697-1.6856-0.45158l-5.2095-9.0232c-0.33984-0.58862-0.13703-1.3459 0.45152-1.6857l2.738-1.5808c0.58855-0.33984 1.346-0.13685 1.6858 0.4517l5.2095 9.0231c0.33978 0.5885 0.13691 1.3458-0.45158 1.6856l-2.7381 1.5808z"/>
  <path class="fil0" d="m40.702 46.89c-0.58849 0.33978-1.3458 0.13697-1.6856-0.45164l-5.2095-9.0232c-0.33984-0.58856-0.13703-1.3459 0.45152-1.6856l2.738-1.5808c0.58855-0.33978 1.346-0.13679 1.6858 0.4517l5.2095 9.0231c0.33978 0.58856 0.13691 1.3459-0.45158 1.6856l-2.738 1.5808z"/>
  <path class="fil1" d="m29.141 0h4.31e-4v0.00679c8.05 1.2e-4 15.335 3.26 20.604 8.5296 5.2693 5.2693 8.5291 12.554 8.5293 20.604h0.00679v0.001348h-0.00679c-1.18e-4 8.05-3.26 15.335-8.5296 20.604-5.2694 5.2693-12.554 8.5291-20.604 8.5293v0.00679h-0.001362v-0.00679c-8.05-1.18e-4 -15.335-3.26-20.604-8.5296-5.2693-5.2694-8.5291-12.554-8.5293-20.604h-0.00678v-0.00135h0.00678c1.3e-4 -8.05 3.26-15.335 8.5296-20.604 5.2693-5.2693 12.554-8.5291 20.604-8.5293v-0.00679h9.29e-4zm4e-4 3.4758v0.00679h-0.00136v-0.00679c-7.0792 1.8e-4 -13.494 2.8753-18.141 7.5226-4.6477 4.6476-7.5229 11.063-7.5229 18.142h0.00679v0.00136h-0.00679c1.9e-4 7.0792 2.8753 13.494 7.5226 18.141 4.6476 4.6477 11.063 7.5229 18.142 7.5229v-0.006779h0.001362v0.006779c7.0792-1.79e-4 13.494-2.8753 18.141-7.5226 4.6477-4.6476 7.5229-11.063 7.5229-18.142h-0.00679v-0.00135h0.00679c-1.87e-4 -7.0792-2.8753-13.494-7.5226-18.141-4.6476-4.6477-11.063-7.5229-18.142-7.5229z"/>
 </g>
</svg>
